# xmcd
#
# Track frame offsets:
#	150
#	6384
#	27905
#	84314
#	129499
#	155412
#	209505
#
# Disc length: 3130 seconds
#
# Revision: 1
# Processed by: cddbd v1.4PL0 Copyright (c) Steve Scherf et al.
# Submitted via: audiograbber 1.81.02
#
DISCID=530c3807
DTITLE=Jimi Hendrix - 2/24/69
DYEAR=1900
DGENRE=
TTITLE0=Jimi Rapps with the Audience
TTITLE1=Lover Man
TTITLE2=Stone Free
TTITLE3=Hear My Train A Comin'
TTITLE4=I Don't Live Today
TTITLE5=Red House
TTITLE6=Foxy Lady
EXTD=
EXTT0=
EXTT1=
EXTT2=
EXTT3=
EXTT4=
EXTT5=
EXTT6=
PLAYORDER=
